<?xml version="1.0" standalone="no"?>
<!DOCTYPE svg PUBLIC "-//W3C//DTD SVG 20010904//EN"
 "http://www.w3.org/TR/2001/REC-SVG-20010904/DTD/svg10.dtd">
<svg version="1.0" xmlns="http://www.w3.org/2000/svg"
 width="255.000000pt" height="255.000000pt" viewBox="0 0 255.000000 255.000000"
 preserveAspectRatio="xMidYMid meet">

<g transform="translate(0.000000,255.000000) scale(0.100000,-0.100000)"
fill="#000000" stroke="none">
<path d="M0 1275 l0 -1275 1275 0 1275 0 0 1275 0 1275 -1275 0 -1275 0 0
-1275z m1397 979 c28 -8 57 -21 63 -29 7 -8 19 -15 26 -15 8 0 14 -5 14 -10 0
-7 -25 -9 -74 -4 -108 10 -118 2 -63 -44 54 -44 77 -73 107 -131 27 -50 44
-42 38 18 -2 23 0 41 4 41 5 0 39 -19 76 -41 37 -23 81 -50 98 -60 17 -11 37
-31 44 -47 l12 -27 11 23 c5 12 13 22 16 22 3 0 47 -38 96 -84 l90 -84 -27
-13 c-16 -7 -28 -16 -28 -20 0 -10 104 -99 116 -99 5 0 32 -12 61 -27 35 -19
53 -34 53 -47 0 -14 -5 -17 -22 -13 -34 8 -174 34 -253 46 -38 6 -115 13 -170
16 -55 2 -121 8 -146 13 -25 5 -133 8 -240 7 -214 -2 -491 -36 -644 -80 -72
-20 -80 -25 -83 -49 -3 -25 -2 -26 52 -26 46 0 56 -3 61 -20 3 -11 3 -25 0
-31 -13 -20 -16 -67 -5 -74 5 -3 14 5 19 18 13 34 56 65 100 72 20 3 59 12 86
20 137 38 613 62 840 42 240 -21 331 -39 358 -69 21 -25 22 -101 3 -391 -8
-114 -12 -216 -9 -226 3 -11 -2 -30 -11 -43 -11 -15 -16 -45 -16 -93 0 -58
-20 -168 -32 -180 -2 -2 -109 -8 -238 -15 -129 -6 -246 -13 -260 -16 -208 -41
-353 -54 -479 -41 -57 6 -129 5 -214 -3 -70 -7 -130 -10 -134 -7 -3 4 6 20 21
37 38 45 35 63 -9 54 -29 -5 -35 -3 -35 11 0 9 12 28 28 41 l27 24 -7 188 c-4
103 -8 214 -9 247 -1 90 -30 241 -42 220 -8 -15 -10 -15 -23 2 -11 15 -13 16
-14 2 0 -13 -8 -15 -35 -12 -24 2 -35 -1 -35 -9 -1 -27 -18 18 -24 65 -4 26
-11 45 -16 42 -5 -3 -12 11 -16 32 l-7 38 -10 -35 -10 -35 -13 35 c-11 30 -13
32 -13 10 -1 -16 -4 -21 -11 -14 -5 5 -12 66 -14 134 -5 132 14 282 49 385 53
154 162 254 352 322 81 29 117 36 208 40 61 3 119 10 130 14 27 12 168 1 232
-17z m-1175 -1041 c50 -49 57 -63 34 -63 -21 0 -126 -121 -133 -152 -3 -16 -9
-28 -13 -28 -4 0 -28 22 -54 50 -58 62 -59 86 -6 155 40 51 76 77 120 84 2 1
26 -20 52 -46z m368 -93 c6 -12 10 -24 7 -26 -9 -10 -37 65 -36 98 1 32 1 31
9 -9 5 -23 14 -52 20 -63z m-70 -10 c0 -5 -2 -10 -4 -10 -3 0 -8 5 -11 10 -3
6 -1 10 4 10 6 0 11 -4 11 -10z m-260 -80 c0 -20 -27 -40 -53 -40 -22 0 -8 50
17 60 26 10 36 4 36 -20z m380 21 c0 -6 -4 -13 -10 -16 -5 -3 -10 1 -10 9 0 9
5 16 10 16 6 0 10 -4 10 -9z m-280 -126 c0 -17 -7 -28 -22 -34 -41 -16 -51 6
-18 39 27 27 40 25 40 -5z m110 -88 c0 -8 11 -24 25 -37 20 -19 22 -26 13 -38
-10 -12 -15 -11 -29 7 -13 16 -24 20 -43 15 -23 -5 -26 -3 -26 19 0 25 22 46
48 47 6 0 12 -6 12 -13z m1824 -124 c36 -31 66 -64 66 -72 0 -9 30 -46 67 -83
37 -37 64 -70 61 -73 -3 -3 -27 -8 -54 -11 -40 -5 -60 -1 -109 21 -46 21 -74
27 -119 26 -64 -2 -72 11 -21 39 15 8 36 31 46 49 l18 34 -30 38 c-17 21 -35
41 -40 44 -15 10 9 45 31 45 10 0 48 -26 84 -57z m-1732 23 c4 -18 -1 -27 -19
-35 -35 -16 -43 -14 -43 14 0 42 55 61 62 21z m1966 -88 c3 -23 -1 -28 -18
-28 -12 0 -30 5 -41 10 -29 16 -7 52 29 48 21 -2 28 -9 30 -30z m-1888 4 c0
-10 -5 -23 -12 -30 -13 -13 -48 -16 -48 -4 0 16 32 52 46 52 8 0 14 -8 14 -18z"/>
<path d="M1151 2157 c-13 -16 -5 -27 20 -27 9 0 51 -20 93 -45 78 -46 82 -45
70 12 -8 38 -43 59 -115 67 -41 4 -60 2 -68 -7z"/>
<path d="M1200 1952 c0 -5 21 -24 48 -42 32 -23 63 -59 98 -113 27 -45 56 -83
62 -85 13 -4 17 34 4 42 -4 3 -14 27 -22 55 -12 45 -20 54 -79 95 -68 46 -111
64 -111 48z"/>
<path d="M1140 1783 c-57 -10 -150 -47 -171 -69 -12 -13 -20 -26 -18 -28 3 -3
41 1 84 8 44 7 130 14 190 15 61 1 112 5 114 7 8 8 -31 31 -78 47 -59 20 -90
25 -121 20z"/>
<path d="M813 1680 c-25 -10 -32 -40 -10 -40 7 0 35 7 61 16 34 12 44 19 35
25 -18 11 -57 10 -86 -1z"/>
<path d="M1211 1464 c-31 -39 -29 -117 4 -149 29 -30 39 -31 64 -6 30 30 36
94 14 138 -23 48 -53 54 -82 17z"/>
<path d="M1013 1465 c-53 -37 -44 -191 10 -183 48 7 71 139 31 178 -18 18 -22
19 -41 5z"/>
<path d="M1373 931 c-2 -10 -23 -27 -46 -38 -46 -22 -272 -98 -324 -108 -37
-7 -45 -35 -11 -35 30 0 308 95 368 125 27 14 56 25 65 25 21 0 19 27 -4 40
-29 15 -42 12 -48 -9z"/>
</g>
</svg>
